<?xml version="1.0" standalone="no"?><!DOCTYPE svg PUBLIC "-//W3C//DTD SVG 1.1//EN" "http://www.w3.org/Graphics/SVG/1.1/DTD/svg11.dtd"><svg t="1515482176973" class="icon" style="" viewBox="0 0 1024 1024" version="1.1" xmlns="http://www.w3.org/2000/svg" p-id="14697" xmlns:xlink="http://www.w3.org/1999/xlink" width="46" height="46"><defs><style type="text/css"></style></defs><path d="M512 32C247.466667 32 32 247.466667 32 512S247.466667 992 512 992 992 776.533333 992 512 776.533333 32 512 32z m0 896C281.6 928 96 742.4 96 512S281.6 96 512 96 928 281.6 928 512 742.4 928 512 928z" p-id="14698" fill="#8a8a8a"></path><path d="M689.066667 307.2c-2.133333 0-6.4 0-8.533334 2.133333l-209.066666 64c-46.933333 14.933333-83.2 51.2-98.133334 98.133334l-64 209.066666c0 2.133333-2.133333 6.4-2.133333 8.533334 0 17.066667 12.8 29.866667 29.866667 29.866666 2.133333 0 6.4 0 8.533333-2.133333l209.066667-64c46.933333-14.933333 83.2-51.2 98.133333-98.133333l64-209.066667c0-2.133333 2.133333-6.4 2.133333-8.533333-2.133333-17.066667-14.933333-29.866667-29.866666-29.866667zM512 571.733333c-32 0-59.733333-25.6-59.733333-59.733333 0-32 25.6-59.733333 59.733333-59.733333 32 0 59.733333 25.6 59.733333 59.733333 0 32-27.733333 59.733333-59.733333 59.733333z" p-id="14699" fill="#8a8a8a"></path></svg>