<?xml version="1.0" standalone="no"?><!DOCTYPE svg PUBLIC "-//W3C//DTD SVG 1.1//EN" "http://www.w3.org/Graphics/SVG/1.1/DTD/svg11.dtd"><svg t="1515481041338" class="icon" style="" viewBox="0 0 1024 1024" version="1.1" xmlns="http://www.w3.org/2000/svg" p-id="2973" xmlns:xlink="http://www.w3.org/1999/xlink" width="46" height="46"><defs><style type="text/css"></style></defs><path d="M878.192681 936.245354 108.619348 936.245354c-24.102954 0-43.708478-19.606547-43.708478-43.708478L64.91087 784.238334l5.1503-5.130857c44.528146-44.37158 147.569964-78.564333 189.668781-99.43671 47.916313-23.754007 88.520079-38.147832 113.048729-44.503587 0.475837-2.334161 0.956791-5.118578 1.364067-8.232498-17.72878-20.963451-49.801243-64.556295-64.506153-120.04712-15.225773-9.838066-27.616988-26.393113-35.373649-47.512107-10.5728-28.708855-14.399965-72.513524 7.493671-105.558128-4.349051-41.724287-11.792581-137.839345 47.430242-203.742311 37.132712-41.352827 92.393293-62.321394 164.245761-62.321394 71.871911 0 127.145795 20.977777 164.28567 62.346977 59.136865 65.881476 51.739385 161.855318 47.368844 203.705472 21.890566 32.993438 18.071587 76.771501 7.503904 105.493659-7.741311 21.12718-20.142759 37.703717-35.399231 47.550992-14.719236 55.536874-46.781466 99.115392-64.49285 120.057353 0.400113 3.134387 0.870834 5.913687 1.341554 8.232498 24.097838 6.253424 63.933101 20.330024 110.982674 43.48642 41.348734 20.35049 146.735969 53.719482 191.552687 97.134271l5.326309 5.154393 0 111.620194C921.901159 916.638807 902.295636 936.245354 878.192681 936.245354L878.192681 936.245354zM99.915106 798.893102l0 59.677171 0 33.966603c0 4.800329 3.903913 8.704243 8.704243 8.704243l769.573333 0c4.796236 0 8.699126-3.90289 8.699126-8.704243l0.005117-96.67276c-72.67623-67.152423-242.663762-119.317503-290.119587-128.816854l-8.496511-1.700735-3.798513-7.788383c-4.177136-8.566096-6.566556-23.762193-7.40669-35.136242l-0.547469-7.40669 4.947685-5.54018c14.679327-16.435321 50.254567-60.85295 63.49615-118.117165l1.914606-8.28264 7.696286-3.618411c10.390651-4.879124 19.323091-16.32685 25.145703-32.222889 8.451486-22.974247 10.036587-57.060577-6.435573-77.66894l-4.487198-5.621021 0.8913-8.43102c3.671623-34.107819 13.423731-124.709303-38.032198-182.027753C601.4518 139.822512 554.943556 122.758881 493.431597 122.758881c-61.490469 0-107.99155 17.058514-138.203642 50.705845-51.470255 57.277518-41.753963 147.885142-38.093597 181.992961l0.900509 8.476045-4.481058 5.619998c-16.480346 20.659529-14.896268 54.777581-6.439666 77.735455 5.837962 15.901155 14.764262 27.332509 25.134447 32.210609l7.692193 3.620457 1.913583 8.276501c13.227256 57.225329 48.827055 101.667517 63.516616 118.120234l4.965082 5.554506-0.563842 7.423063c-0.849344 11.270694-3.235694 26.390044-7.381108 35.004235l-3.78214 7.863085-8.558933 1.713015C350.199429 675.03826 176.981319 725.56605 99.915106 798.893102L99.915106 798.893102zM99.915106 798.893102M959.088106 309.227784c0 4.922103-2.880607 8.911974-6.430456 8.911974L754.339886 318.139757c-3.549849 0-6.42534-3.989871-6.42534-8.911974l0-20.37505c0-4.922103 2.876514-8.911974 6.42534-8.911974l198.317765 0c3.549849 0 6.430456 3.989871 6.430456 8.911974L959.088106 309.227784 959.088106 309.227784zM959.088106 309.227784M959.088106 553.300638c0 4.92108-2.00568 8.911974-4.475941 8.911974L816.65207 562.212612c-2.466168 0-4.466732-3.990894-4.466732-8.911974l0-20.376073c0-4.922103 2.000564-8.91095 4.466732-8.91095l137.960095 0c2.470261 0 4.475941 3.989871 4.475941 8.91095L959.088106 553.300638 959.088106 553.300638zM959.088106 553.300638M959.088106 436.571077c0 4.919033-2.552126 8.911974-5.700839 8.911974L777.485025 445.48305c-3.149736 0-5.701862-3.992941-5.701862-8.911974l0-20.376073c0-4.923126 2.552126-8.916067 5.701862-8.916067L953.387267 407.278937c3.148713 0 5.700839 3.993964 5.700839 8.916067L959.088106 436.571077 959.088106 436.571077zM959.088106 436.571077" p-id="2974" fill="#8a8a8a"></path></svg>