<?xml version="1.0" standalone="no"?><!DOCTYPE svg PUBLIC "-//W3C//DTD SVG 1.1//EN" "http://www.w3.org/Graphics/SVG/1.1/DTD/svg11.dtd"><svg t="1515482455337" class="icon" style="" viewBox="0 0 1024 1024" version="1.1" xmlns="http://www.w3.org/2000/svg" p-id="15423" xmlns:xlink="http://www.w3.org/1999/xlink" width="46" height="46"><defs><style type="text/css"></style></defs><path d="M859.923596 759.15403" p-id="15424" fill="#8a8a8a"></path><path d="M146.921699 868.283496c0 0-5.440919-82.46006 17.36346-107.938338 30.30419-33.857109 95.219665-63.707974 159.224398-86.317924 64.008826-22.533202 100.332103-58.672284 100.332103-79.002308 0-20.302395-14.254655-87.98796-40.74089-94.749968-26.485211-6.783497-41.939181-83.527368-41.939181-106.095363 0-22.573111 13.250792-15.789615 13.250792-15.789615s-19.906375-64.3721 2.199085-137.678686c32.121582-106.45966 154.714687-103.721293 155.159826-103.705943 0.442068-0.01535 127.643122-2.75781 156.101267 103.705943 19.774369 73.950246 2.193968 137.678686 2.193968 137.678686s13.236466-6.783497 13.236466 15.789615c0 22.572088-15.429411 99.311867-41.879829 106.095363-26.447349 6.760984-42.918485 74.447573-42.918485 94.749968 0 20.330024 38.521339 56.470129 102.429881 79.002308 63.912635 22.60995 142.755308 54.595432 158.976758 86.317924 15.513322 30.29191 17.323551 107.938338 17.323551 107.938338L146.921699 868.283496 146.921699 868.283496zM146.921699 868.283496M846.567403 839.275835c-2.185782-25.813922-6.390547-53.827953-12.484336-65.724911-1.096984-2.14792-8.604982-13.868869-48.697095-33.812083-23.732517-11.805884-54.522778-24.355711-94.099145-38.355563-32.838919-11.577686-61.84658-27.214828-83.886549-45.218878-17.291828-14.125719-37.905308-36.199457-37.905308-61.139475 0-15.321964 5.471618-40.989553 13.305027-62.417585 12.127202-33.157167 28.52159-53.217039 48.746214-59.663868 2.687202-3.057639 13.473873-12.307304 21.348214-33.048697 4.318352-11.369955 8.202822-21.053502 8.692986-34.792411 0.401136-11.225669-1.12666-12.68081-4.715395-14.271028-5.984295-2.650363-18.866696 0.320295-18.866696 0.320295 0.153496-0.560772 19.379373-77.367065 1.842974-142.950759-8.804527-32.93818-30.894637-56.564273-65.656349-70.222341-29.626761-11.640108-58.216913-11.975752-61.377906-11.975752l-0.335644 0.002047-0.705058 0.024559-0.715291-0.024559-0.292666-0.001023c-3.022847 0-30.364565 0.334621-59.299571 11.911284-34.417881 13.770632-56.987922 37.71702-67.081815 71.170946-18.848277 62.505589-2.822278 118.80278-2.242064 120.789017l6.812149 21.451568c0 0-34.540677-12.936637-10.977006 46.730301 8.289804 20.990057 12.289907 31.830963 14.978133 34.880415 20.452821 6.510274 36.567847 26.793226 47.924499 60.329017 7.04751 20.819165 11.969613 46.215578 11.969613 61.759599 0 24.896017-19.837814 46.836725-36.479843 60.858066-21.614274 18.21178-50.393737 33.948183-83.197864 45.49517-72.780607 25.709545-125.08281 53.521984-147.272181 78.3126-0.074701 0.082888-7.492648 8.763594-9.860579 45.415352-0.317225 4.9088-0.500397 9.697873-0.593518 14.170744L846.567403 839.277882z" p-id="15425" fill="#8a8a8a"></path></svg>