<?xml version="1.0" standalone="no"?><!DOCTYPE svg PUBLIC "-//W3C//DTD SVG 1.1//EN" "http://www.w3.org/Graphics/SVG/1.1/DTD/svg11.dtd"><svg t="1515457504638" class="icon" style="" viewBox="0 0 1028 1024" version="1.1" xmlns="http://www.w3.org/2000/svg" p-id="3483" xmlns:xlink="http://www.w3.org/1999/xlink" width="20.078125" height="20"><defs><style type="text/css"></style></defs><path d="M12.032 545.962667l261.098667 262.016 0.021333-0.021333 43.904 44.074667 49.258667 49.301333c8.021333 8.042667 18.709333 12.458667 30.08 12.458667 11.456 0 22.229333-4.48 30.336-12.586667 15.424-15.445333 16.938667-39.616 3.626667-56.576l-75.648-75.904 0 0.021333-212.501333-213.248 842.218667 0c23.509333 0 42.645333-19.221333 42.645333-42.858667 0-23.637333-19.136-42.837333-42.645333-42.837333L142.229333 469.802667l192.853333-193.557333 12.224-12.032 90.048-90.368c8.874667-17.664 6.122667-38.058667-7.125333-51.349333-7.936-7.936-18.666667-12.288-30.229333-12.288-12.714667 0-24.853333 5.12-34.154667 14.421333l-23.637333 23.616L277.333333 213.333333l-12.245333 12.032L12.074667 479.296c-8.384 8.426667-12.629333 19.968-12.010667 32.512l0.042667 0.832-0.042667 0.853333C-0.554667 526.058667 3.690667 537.6 12.032 545.962667L12.032 545.962667zM12.032 545.962667" p-id="3484" fill="#ffffff"></path></svg>