<?xml version="1.0" standalone="no"?><!DOCTYPE svg PUBLIC "-//W3C//DTD SVG 1.1//EN" "http://www.w3.org/Graphics/SVG/1.1/DTD/svg11.dtd"><svg t="1515555132356" class="icon" style="" viewBox="0 0 1024 1024" version="1.1" xmlns="http://www.w3.org/2000/svg" p-id="1373" xmlns:xlink="http://www.w3.org/1999/xlink" width="30" height="30"><defs><style type="text/css"></style></defs><path d="M511.996387 62.955084c-247.983857 0-449.048529 201.06106-449.048528 449.048529 0 247.983857 201.06106 449.048529 449.048528 449.048528 247.983857 0 449.048529-201.064672 449.048529-449.048528 0-247.987469-201.057447-449.048529-449.048529-449.048529z m0 864.768108c-229.679306 0-415.827955-186.152261-415.827954-415.827955 0-229.679306 186.148649-415.719579 415.827954-415.719579 229.675693 0 415.824342 186.152261 415.824343 415.827955 0.003613 229.672081-186.145036 415.719579-415.824343 415.719579zM279.141692 420.567558c0 32.122374 26.093107 58.21548 58.21548 58.21548 32.118761 0 58.208255-26.093107 58.208255-58.21548s-26.093107-58.21548-58.208255-58.21548c-32.122374 0.003613-58.21548 25.984732-58.21548 58.21548z m349.285656 0c0 32.122374 26.093107 58.21548 58.211867 58.21548s58.208255-26.093107 58.208256-58.21548-26.089494-58.21548-58.208256-58.21548-58.211868 25.984732-58.211867 58.21548m-326.812277 191.198928c22.476991 95.377295 108.205292 166.308784 210.381316 166.308784s187.907938-70.931489 210.381317-166.308784H301.615071z" p-id="1374" fill="#8a8a8a"></path></svg>