<?xml version="1.0" standalone="no"?><!DOCTYPE svg PUBLIC "-//W3C//DTD SVG 1.1//EN" "http://www.w3.org/Graphics/SVG/1.1/DTD/svg11.dtd"><svg t="1515555687926" class="icon" style="" viewBox="0 0 1024 1024" version="1.1" xmlns="http://www.w3.org/2000/svg" p-id="2209" xmlns:xlink="http://www.w3.org/1999/xlink" width="30" height="30"><defs><style type="text/css"></style></defs><path d="M512 8.57088C233.9584 8.57088 8.56576 233.9584 8.56576 512S233.9584 1015.42912 512 1015.42912c278.04672 0 503.43424-225.38752 503.43424-503.42912S790.03648 8.57088 512 8.57088z m0 969.5744c-257.44384 0-466.14528-208.70144-466.14528-466.14528C45.85472 254.56128 254.55616 45.85472 512 45.85472c257.43872 0 466.14016 208.70656 466.14016 466.14528 0 257.44384-208.70144 466.14528-466.14016 466.14528z" p-id="2210" fill="#8a8a8a"></path><path d="M287.79008 516.79232c0-14.3104 4.77184-28.6208 14.3104-42.93632 9.54368-9.53856 23.85408-14.3104 38.15936-14.3104 14.3104 0 28.6208 4.77184 42.93632 14.3104 9.54368 14.3104 14.30528 28.6208 14.30528 42.93632 0 14.3104-4.77184 33.38752-14.30528 42.93632-14.31552 9.53856-28.6208 14.30528-42.93632 14.30528-14.3104 0-28.62592-4.77184-38.15936-14.30528-9.54368-9.5488-14.3104-28.63104-14.3104-42.93632z m448.42496 9.53344v-33.38752c-4.77696-109.72672-57.25184-214.67648-133.57056-281.46688h-23.84896c-19.08736 0-38.16448 14.3104-38.16448 38.15936 0 14.3104 28.62592 33.39264 38.16448 38.15936 52.48 57.25184 85.86752 133.56544 85.86752 214.67648 0 95.4112-38.16448 176.50176-100.18816 233.74336-14.30528 4.78208-23.8592 19.08736-23.8592 38.15936 0 19.08736 19.08736 38.15936 38.16448 38.15936 14.30528 0 23.8592-4.76672 23.8592-4.76672 76.32896-66.79552 128.7936-166.97344 133.56032-281.472l0.01536 0.03584z m-262.36928-190.8224s-9.5488-9.54368-23.8592-9.54368-28.6208 14.31552-28.6208 33.39776c0 19.07712 14.3104 28.6208 19.08224 33.38752 38.15936 23.85408 66.7904 71.56736 66.7904 124.03712 0 52.48-28.6208 100.18304-66.7904 124.032-4.77184 4.77184-19.08224 9.53856-19.08224 33.38752 0 19.08736 14.3104 33.39264 28.6208 33.39264s23.8592-9.53856 23.8592-9.53856c57.24672-38.15936 90.64448-104.94976 90.64448-181.2736 0-76.33408-33.39776-143.11936-90.64448-181.27872z" p-id="2211" data-spm-anchor-id="a313x.7781069.0.i3" fill="#8a8a8a" class="selected"></path></svg>