<?xml version="1.0" standalone="no"?><!DOCTYPE svg PUBLIC "-//W3C//DTD SVG 1.1//EN" "http://www.w3.org/Graphics/SVG/1.1/DTD/svg11.dtd"><svg t="1515422344464" class="icon" style="" viewBox="0 0 1024 1024" version="1.1" xmlns="http://www.w3.org/2000/svg" p-id="1853" xmlns:xlink="http://www.w3.org/1999/xlink" width="20" height="20"><defs><style type="text/css"></style></defs><path d="M858.078575 864.302835 165.927565 864.302835c-8.789177 0-16.643052-5.463432-19.698644-13.701047-6.17463-16.692171-18.120706-59.909461 4.306072-100.538811 14.663978-26.549679 67.057255-47.951105 151.609976-80.050174 35.820833-13.596669 88.449471-33.576723 103.564727-45.060265-3.577478-7.278777-13.82282-21.11797-21.63781-31.677467-29.913287-40.426735-75.128071-101.515045-75.128071-184.853102 0-152.039765 79.681784-250.278183 203.009623-250.278183 0.021489 0 0.063445 0 0.080841 0 123.339096 0 203.028043 98.238418 203.028043 250.278183 0 83.337033-45.211714 144.426367-75.128071 184.853102-7.741311 10.44898-17.853623 24.109094-21.533432 31.757285 15.248286 11.485589 67.723428 31.402197 103.462396 44.980447 84.550675 32.098046 136.942929 53.499471 151.606907 80.050174 22.409382 40.602743 10.481725 83.825151 4.309142 100.519368C874.733906 858.828147 866.868775 864.302835 858.078575 864.302835zM411.391093 822.301232 842.368778 822.301232c3.045359-14.028505 4.297886-33.883715-5.67014-51.945069-8.727779-15.145955-84.483136-43.900859-129.736806-61.077054-90.890057-34.511002-131.110083-50.968835-131.911332-79.752392-0.500397-18.512632 12.757558-36.436864 31.113625-61.244876 28.235065-38.139645 66.896596-90.37738 66.896596-159.860894 0-100.683097-42.303478-208.273511-161.02644-208.273511-0.01842 0-0.060375 0-0.080841 0-118.712729 0-161.004951 107.590414-161.004951 208.273511 0 69.482491 38.661531 121.721249 66.894549 159.860894 18.356067 24.806989 31.615045 42.732244 31.113625 61.244876-0.799202 28.783557-41.022299 45.24139-131.909286 79.752392-45.25674 17.175171-121.010051 45.931099-129.74704 61.08831-9.969049 18.070564-8.727779 37.924751-5.671163 51.93279L411.391093 822.300208z" p-id="1854" fill="#ffffff"></path></svg>