<?xml version="1.0" standalone="no"?><!DOCTYPE svg PUBLIC "-//W3C//DTD SVG 1.1//EN" "http://www.w3.org/Graphics/SVG/1.1/DTD/svg11.dtd"><svg t="1515315845448" class="icon" style="" viewBox="0 0 1024 1024" version="1.1" xmlns="http://www.w3.org/2000/svg" p-id="1951" xmlns:xlink="http://www.w3.org/1999/xlink" width="200" height="200"><defs><style type="text/css"></style></defs><path d="M928.3663113 574.86492608h-353.89863761v353.95508367c0 34.49279755-27.97487613 62.43998317-62.46873871 62.43998317-34.49279755 0-62.46767369-27.94718561-62.46767368-62.43998317v-353.95508367h-353.90076766c-34.52155309 0-62.46767369-27.94718561-62.46767367-62.43998317 0-34.48001731 27.94931566-62.43998317 62.46767367-62.43998316h353.89863762v-353.95508366c0-34.48001731 27.97487613-62.43998317 62.46767368-62.43998317 34.49386257 0 62.4687387 27.96103087 62.4687387 62.43998317v353.95614868h353.89863762c34.52155309 0 62.4687387 27.95890083 62.4687387 62.43785313-0.00106502 34.49279755-27.94718561 62.43785313-62.4687387 62.43785312z" fill="#e6e6e6" p-id="1952"></path></svg>