<?xml version="1.0" standalone="no"?><!DOCTYPE svg PUBLIC "-//W3C//DTD SVG 1.1//EN" "http://www.w3.org/Graphics/SVG/1.1/DTD/svg11.dtd"><svg t="1515401107131" class="icon" style="" viewBox="0 0 1429 1024" version="1.1" xmlns="http://www.w3.org/2000/svg" p-id="1294" xmlns:xlink="http://www.w3.org/1999/xlink" width="22.328125" height="16"><defs><style type="text/css"></style></defs><path d="M85.333333 0h1021.445535v1021.445535H85.333333z" fill="#F7F7F7" p-id="1295"></path><path d="M700.935149 712.883863a81.364521 81.364521 0 0 0 0 115.029663l81.811403 81.811404a81.343241 81.343241 0 0 0 115.029664-115.029664L815.975453 712.883863a81.353881 81.353881 0 0 0-115.040304 0" fill="#32AA77" p-id="1296"></path><path d="M778.075567 792.567255a85.311982 85.311982 0 0 0 0 120.647613l85.812065 85.790785a85.280062 85.280062 0 0 0 120.636974 0 85.301342 85.301342 0 0 0 0-120.636973l-85.790785-85.801425a85.333262 85.333262 0 0 0-120.658254 0" fill="#83EF60" p-id="1297"></path><path d="M822.551008 962.105933a127.24445 127.24445 0 0 1-90.280889-37.335962l-46.369371-46.358731c-49.78483-49.78483-49.78483-130.787589 0-180.572419 49.79547-49.78483 130.787589-49.79547 180.572418 0l46.358731 46.358732c49.79547 49.78483 49.79547 130.787589 0 180.572418a127.25509 127.25509 0 0 1-90.280889 37.335962m-46.369371-259.064123a84.85446 84.85446 0 0 0-60.190806 24.887094c-33.18634 33.18634-33.18634 87.195272 0 120.381613l46.369371 46.358731c33.18634 33.1757 87.184632 33.19698 120.370972 0 33.18634-33.18634 33.18634-87.195272 0-120.381612l-46.358731-46.358732a84.83318 84.83318 0 0 0-60.190806-24.887094" fill="#2D4D68" p-id="1298"></path><path d="M329.235375 712.883863a81.343241 81.343241 0 0 0 0 115.029663l81.811403 81.811404a81.343241 81.343241 0 0 0 115.029664-115.029664L444.265038 712.883863a81.343241 81.343241 0 0 0-115.029663 0" fill="#32AA77" p-id="1299"></path><path d="M406.375793 792.567255a85.311982 85.311982 0 0 0 0 120.647613l85.812065 85.790785a85.280062 85.280062 0 0 0 120.636974 0 85.301342 85.301342 0 0 0 0-120.636973l-85.801425-85.801425a85.311982 85.311982 0 0 0-120.647614 0" fill="#83EF60" p-id="1300"></path><path d="M450.851234 962.105933a127.24445 127.24445 0 0 1-90.280889-37.335962l-46.369371-46.358731c-49.78483-49.78483-49.78483-130.787589 0-180.572419s130.787589-49.79547 180.561778 0l46.369371 46.358732c49.78483 49.78483 49.78483 130.787589 0 180.572418a127.25509 127.25509 0 0 1-90.280889 37.335962m-46.380011-259.064123a84.85446 84.85446 0 0 0-60.190806 24.887094c-33.18634 33.18634-33.18634 87.195272 0 120.381613l46.369371 46.358731c33.18634 33.1757 87.195272 33.19698 120.381612 0 33.18634-33.18634 33.18634-87.195272 0-120.381612l-46.369371-46.358732a84.82254 84.82254 0 0 0-60.190806-24.887094" fill="#2D4D68" p-id="1301"></path><path d="M979.098176 351.121903c0-58.765038-47.635538-106.400577-106.400576-106.400577s-106.400577 47.635538-106.400577 106.400577C766.297023 198.341315 642.436112 74.480404 489.655524 74.480404S213.014025 198.341315 213.014025 351.121903C154.248987 351.121903 106.613449 398.757441 106.613449 457.522479s47.635538 106.400577 106.400576 106.400577h766.084151c58.765038 0 106.400577-47.635538 106.400577-106.400577s-47.635538-106.400577-106.400577-106.400576" fill="#FFFFFF" p-id="1302"></path><path d="M0.212872 372.402018h1425.767726v319.20173H0.212872z" fill="#AAE1ED" p-id="1303"></path><path d="M979.098176 585.203171H213.014025C142.608764 585.203171 85.333333 527.927741 85.333333 457.522479c0-63.372183 46.411931-116.114949 107.03898-126.020843C202.501648 176.337676 331.96987 53.200288 489.655524 53.200288c135.458574 0 250.094555 90.876732 286.143071 214.865325A127.446611 127.446611 0 0 1 872.6976 223.441211c63.680745 0 116.625672 46.869454 126.148523 107.932745C1059.909414 340.886167 1106.778868 393.841734 1106.778868 457.522479c0 70.405262-57.27543 127.680692-127.680692 127.680692M489.655524 95.760519C348.845001 95.760519 234.294141 210.32202 234.294141 351.121903a21.280115 21.280115 0 0 1-21.280116 21.280115c-46.933294 0-85.120461 38.187167-85.120461 85.120461s38.187167 85.120461 85.120461 85.120461h766.084151c46.933294 0 85.120461-38.187167 85.120462-85.120461s-38.187167-85.120461-85.120462-85.120461a21.280115 21.280115 0 0 1-21.280115-21.280115c0-46.933294-38.187167-85.120461-85.120461-85.120462s-85.120461 38.187167-85.120461 85.120462a21.280115 21.280115 0 0 1-42.560231 0C745.016908 210.32202 630.466047 95.760519 489.655524 95.760519" fill="#2D4D68" p-id="1304"></path></svg>