<?xml version="1.0" standalone="no"?><!DOCTYPE svg PUBLIC "-//W3C//DTD SVG 1.1//EN" "http://www.w3.org/Graphics/SVG/1.1/DTD/svg11.dtd"><svg t="1515466004868" class="icon" style="" viewBox="0 0 1024 1024" version="1.1" xmlns="http://www.w3.org/2000/svg" p-id="8096" xmlns:xlink="http://www.w3.org/1999/xlink" width="44" height="44"><defs><style type="text/css"></style></defs><path d="M512 512m-512 0a512 512 0 1 0 1024 0 512 512 0 1 0-1024 0Z" fill="#F99900" p-id="8097"></path><path d="M306.4 136.8c17.6 5.6 38.4 9.6 60 13.6 36 6.4 76 13.6 109.6 32 36 19.2 36.8 52.8 34.4 70.4-2.4 15.2-8 28.8-16.8 40l18.4 1.6c7.2-12 12-24.8 14.4-39.2 5.6-37.6-9.6-69.6-42.4-87.2-35.2-19.2-77.6-27.2-114.4-33.6-21.6-4-41.6-7.2-58.4-12.8-55.2-18.4-78.4-44-76-56 0.8-6.4 10.4-9.6 24-8.8 4.8-0.8 8.8 0 12.8 0 8-4.8 16.8-8.8 25.6-12.8-10.4-2.4-23.2-4-37.6-4.8-22.4-0.8-38.4 7.2-40.8 22.4-3.2 22.4 22.4 53.6 87.2 75.2z" fill="#663210" p-id="8098"></path><path d="M602.4 203.2L287.2 293.6c-33.6 9.6-53.6 45.6-44 79.2l137.6 480.8c9.6 33.6 45.6 53.6 79.2 44L776 807.2c33.6-9.6 53.6-45.6 44-79.2L681.6 247.2c-9.6-33.6-44.8-53.6-79.2-44zM516.8 322.4l-95.2 27.2c-8.8 2.4-17.6-2.4-20-11.2-2.4-8.8 2.4-17.6 11.2-20l95.2-27.2c8.8-2.4 17.6 2.4 20 11.2 2.4 8.8-2.4 17.6-11.2 20z" fill="#FFFFFF" p-id="8099"></path><path d="M744.8 700L428.8 789.6c-33.6 9.6-69.6-10.4-79.2-44l30.4 107.2c9.6 33.6 45.6 53.6 79.2 44l316-90.4c33.6-9.6 53.6-45.6 44-79.2l-30.4-107.2c9.6 34.4-10.4 70.4-44 80z" fill="#EAEAEA" p-id="8100"></path><path d="M614.4 512c7.2 25.6-8 53.6-33.6 60.8l-88 25.6c-25.6 7.2-52.8-8-60-33.6L401.6 456c-7.2-25.6 8-53.6 33.6-60.8l88-25.6c25.6-7.2 52.8 8 60 33.6L614.4 512z" fill="#3AD0F9" p-id="8101"></path><path d="M592 659.2c-7.2 0-13.6-4.8-16-12-2.4-8.8 2.4-17.6 11.2-20l87.2-24.8c8.8-2.4 17.6 2.4 20 11.2s-2.4 17.6-11.2 20l-87.2 24.8c-0.8 0-2.4 0.8-4 0.8zM440 704c-7.2 0-13.6-4.8-15.2-12-2.4-8.8 2.4-17.6 11.2-20l112-32c8.8-2.4 17.6 2.4 20 11.2 2.4 8.8-2.4 17.6-11.2 20l-112 32c-1.6 0.8-3.2 0.8-4.8 0.8zM624 701.6c-3.2 0-6.4-2.4-8-5.6-0.8-4 1.6-8.8 5.6-9.6l72-20.8c4-0.8 8.8 1.6 9.6 5.6 0.8 4-1.6 8.8-5.6 9.6l-72 20.8H624zM447.2 752.8c-3.2 0-6.4-2.4-8-5.6-1.6-4 1.6-8.8 5.6-9.6l144.8-40.8c4-0.8 8.8 1.6 10.4 5.6 1.6 4-1.6 8.8-5.6 9.6l-144.8 40.8h-2.4zM537.6 768.8c-3.2 0-6.4-2.4-8-5.6-1.6-4 1.6-8.8 5.6-9.6L709.6 704c4-0.8 8.8 1.6 10.4 5.6 1.6 4-1.6 8.8-5.6 9.6l-174.4 49.6h-2.4zM458.4 791.2c-4 0-7.2-2.4-8-5.6-1.6-4 1.6-8.8 5.6-9.6l44.8-12c4.8-0.8 9.6 1.6 10.4 5.6 1.6 4-1.6 8.8-5.6 9.6l-44.8 12h-2.4z" fill="#ADADAD" p-id="8102"></path><path d="M460.379184 501.833971a50.4 50.4 0 1 0 96.916488-27.709827 50.4 50.4 0 1 0-96.916488 27.709827Z" fill="#FBD000" p-id="8103"></path><path d="M521.6 518.4c-9.6 2.4-20 0-28-7.2-3.2-3.2-3.2-8-0.8-11.2 3.2-3.2 8-3.2 11.2-0.8 4.8 4 11.2 4.8 16.8 2.4 5.6-3.2 8.8-9.6 7.2-16-0.8-4 1.6-8.8 6.4-9.6 4-0.8 8.8 1.6 9.6 6.4 2.4 12.8-3.2 26.4-15.2 32.8-2.4 1.6-4.8 2.4-7.2 3.2zM488 488c-3.2 0-6.4-2.4-7.2-4.8l-0.8-2.4c-0.8-4 0.8-8 5.6-8.8 4-0.8 8 0.8 9.6 4.8l0.8 1.6c0.8 4-0.8 8-5.6 8.8-0.8 0.8-1.6 0.8-2.4 0.8zM512 472c-3.2 0-6.4-2.4-7.2-4.8l-0.8-2.4c-0.8-4 1.6-8 5.6-8.8 4-0.8 8 0.8 9.6 4.8l0.8 1.6c0.8 4-1.6 8-5.6 8.8-0.8 0.8-1.6 0.8-2.4 0.8z" fill="#663210" p-id="8104"></path><path d="M508 544c-26.4 0-50.4-17.6-57.6-43.2-4-15.2-2.4-32 5.6-45.6 8-14.4 20.8-24 36-28.8 5.6-1.6 11.2-2.4 16.8-2.4 26.4 0 50.4 17.6 57.6 43.2 4 15.2 2.4 32-5.6 45.6-8 14.4-20.8 24-36 28.8-5.6 1.6-11.2 2.4-16.8 2.4z m0-104c-4 0-8 0.8-12 1.6-11.2 3.2-20.8 10.4-26.4 20.8-5.6 10.4-7.2 21.6-4 32.8 5.6 18.4 22.4 32 41.6 32 4 0 8-0.8 12-1.6 11.2-3.2 20.8-10.4 26.4-20.8 5.6-10.4 7.2-21.6 4-32.8-5.6-18.4-22.4-32-41.6-32z" fill="#663210" p-id="8105"></path><path d="M443.2 912c-32 0-60.8-21.6-69.6-52.8L235.2 376c-5.6-18.4-3.2-38.4 6.4-55.2 9.6-16.8 24.8-29.6 43.2-34.4l316.8-90.4c6.4-1.6 12.8-2.4 20-2.4 32 0 60.8 21.6 69.6 52.8l137.6 483.2c5.6 18.4 3.2 38.4-6.4 55.2-9.6 16.8-24.8 29.6-43.2 34.4l-316.8 90.4c-6.4 1.6-12.8 2.4-19.2 2.4z m178.4-703.2c-4.8 0-10.4 0.8-15.2 2.4L289.6 302.4c-14.4 4-26.4 13.6-33.6 27.2-7.2 12.8-8.8 28-4.8 42.4l137.6 483.2c7.2 24 28.8 40.8 54.4 40.8 4.8 0 10.4-0.8 15.2-2.4l316.8-90.4c14.4-4 26.4-13.6 33.6-27.2 7.2-12.8 8.8-28 4.8-42.4L676 249.6c-7.2-24-29.6-40.8-54.4-40.8zM416 359.2c-10.4 0-20-7.2-23.2-17.6-4-12.8 4-26.4 16.8-29.6l96-27.2c12.8-3.2 26.4 4 29.6 16.8 4 12.8-4 26.4-16.8 29.6l-96 27.2c-1.6 0-4 0.8-6.4 0.8z m97.6-60h-2.4L416 327.2c-4 1.6-6.4 5.6-5.6 9.6 0.8 4 5.6 6.4 9.6 5.6l95.2-27.2c4-1.6 6.4-5.6 5.6-9.6-0.8-4-4-6.4-7.2-6.4z" fill="#663210" p-id="8106"></path><path d="M493.6 291.2c-8.8 12-20 20.8-31.2 23.2-59.2 12-172-2.4-268-34.4-76-25.6-116.8-59.2-124-80.8-1.6-6.4-0.8-11.2 2.4-16 12-16 31.2-16 48.8-11.2 4-4.8 8-9.6 12-13.6-24-8-55.2-12-73.6 14.4-6.4 8.8-8 20-4.8 31.2C65.6 236.8 116.8 272 189.6 296c75.2 24.8 159.2 39.2 221.6 39.2 20.8 0 38.4-1.6 54.4-4.8 18.4-4 35.2-18.4 46.4-38.4l-18.4-0.8z" fill="#663210" p-id="8107"></path><path d="M560 128c-17.6 0-32-14.4-32-32s14.4-32 32-32 32 14.4 32 32-14.4 32-32 32z m0-48.8c-9.6 0-16.8 8-16.8 16.8 0 9.6 8 16.8 16.8 16.8 9.6 0 16.8-8 16.8-16.8 0-9.6-7.2-16.8-16.8-16.8zM152 568c-17.6 0-32-14.4-32-32s14.4-32 32-32 32 14.4 32 32-14.4 32-32 32z m0-48.8c-9.6 0-16.8 8-16.8 16.8 0 9.6 8 16.8 16.8 16.8 9.6 0 16.8-8 16.8-16.8 0-9.6-7.2-16.8-16.8-16.8zM895.2 624c-17.6 0-32-14.4-32-32s14.4-32 32-32 32 14.4 32 32-14.4 32-32 32z m0-48.8c-9.6 0-16.8 7.2-16.8 16.8 0 9.6 7.2 16.8 16.8 16.8 9.6 0 16.8-7.2 16.8-16.8 0-8.8-7.2-16.8-16.8-16.8zM298.4 771.2c0-3.2-3.2-6.4-8-7.2l-15.2-2.4c-4-0.8-8.8-4.8-8.8-8.8l-2.4-14.4c-0.8-4-4-8-7.2-8s-6.4 3.2-7.2 8l-1.6 14.4c-0.8 4-4.8 8.8-8.8 8.8l-15.2 3.2c-4 0.8-8 4-8 7.2s3.2 6.4 8 7.2l15.2 2.4c4 0.8 8.8 4.8 8.8 8.8l2.4 15.2c0.8 4 4 8 7.2 8s6.4-3.2 6.4-8l2.4-16.8c0.8-4 4.8-8 8.8-8.8l14.4-0.8c4.8-1.6 8.8-4.8 8.8-8zM868 288.8c0-3.2-3.2-6.4-8-7.2l-15.2-2.4c-4-0.8-8.8-4.8-8.8-8.8l-2.4-15.2c-0.8-4-4-8-7.2-8s-6.4 3.2-7.2 8l-2.4 15.2c-0.8 4-4.8 8.8-8.8 8.8l-15.2 2.4c-4 0.8-8 4-8 7.2s3.2 6.4 8 7.2l15.2 2.4c4 0.8 8.8 4.8 8.8 8.8l2.4 15.2c0.8 4 4 8 7.2 8s6.4-3.2 6.4-8l2.4-16.8c0.8-4 4.8-8 8.8-8.8l14.4-0.8c6.4-1.6 9.6-4 9.6-7.2zM294.4 196.8c0-3.2-3.2-6.4-8-7.2l-15.2-2.4c-4-0.8-8.8-4.8-8.8-8.8l-2.4-15.2c-0.8-4-4-8-7.2-8s-6.4 3.2-7.2 8l-2.4 15.2c-0.8 4-4.8 8.8-8.8 8.8l-15.2 2.4c-4 0.8-8 4-8 7.2s3.2 6.4 8 7.2l15.2 2.4c4 0.8 8.8 4.8 8.8 8.8l2.4 15.2c0.8 4 4 8 7.2 8s6.4-3.2 6.4-8l2.4-16.8c0.8-4 4.8-8 8.8-8.8l14.4-0.8c5.6-1.6 9.6-4 9.6-7.2z" fill="#FFFFFF" p-id="8108"></path><path d="M753.6 640c-3.2 0-6.4-2.4-8-5.6l-76.8-264c-1.6-4 1.6-8.8 5.6-9.6 4-0.8 8.8 1.6 9.6 5.6l76.8 264c1.6 4-1.6 8.8-5.6 9.6h-1.6zM663.2 328c-3.2 0-6.4-2.4-8-6.4l-19.2-71.2c-1.6-4.8 1.6-8.8 5.6-10.4 4-1.6 8.8 1.6 9.6 5.6l19.2 71.2c1.6 4.8-1.6 8.8-5.6 10.4 0 0.8-0.8 0.8-1.6 0.8z" fill="#074370" p-id="8109"></path></svg>