<?xml version="1.0" standalone="no"?><!DOCTYPE svg PUBLIC "-//W3C//DTD SVG 1.1//EN" "http://www.w3.org/Graphics/SVG/1.1/DTD/svg11.dtd"><svg t="1515466034897" class="icon" style="" viewBox="0 0 1024 1024" version="1.1" xmlns="http://www.w3.org/2000/svg" p-id="8506" xmlns:xlink="http://www.w3.org/1999/xlink" width="44" height="44"><defs><style type="text/css"></style></defs><path d="M512 512m-512 0a512 512 0 1 0 1024 0 512 512 0 1 0-1024 0Z" fill="#75B600" p-id="8507"></path><path d="M760 784l-8-544c0-22.4-17.6-40-40-40H272c-22.4 0-40 17.6-40 40 0 0 0 580 0.8 582.4 3.2 19.2 19.2 33.6 39.2 33.6h72v32l48-24 48 24v-32h352l-32-72z" fill="#628C07" p-id="8508"></path><path d="M790.4 736h-480c-32 0-40 24-40 24V216c0-22.4 17.6-40 40-40h440c22.4 0 40 17.6 40 40v520z" fill="#F74541" p-id="8509"></path><path d="M318.4 176h-8c-22.4 0-40 17.6-40 40v544s8-24 40-24h8V176z" fill="#E8372E" p-id="8510"></path><path d="M272 776h-1.6c-4-0.8-6.4-4-6.4-8V216c0-27.2 20-48 46.4-48h440c27.2 0 49.6 21.6 49.6 48v520c0 4.8-3.2 8-8 8H326.4c-34.4 0-47.2 27.2-47.2 27.2-1.6 3.2-4 4.8-7.2 4.8z m38.4-592c-16.8 0-30.4 14.4-30.4 32v528.8c9.6-8.8 24.8-16.8 46.4-16.8H784V216c0-16.8-16-32-33.6-32h-440z" fill="#A03513" p-id="8511"></path><path d="M790.4 736h-480c-22.4 0-40 17.6-40 40v16c0 22.4 17.6 40 40 40h480s-24-16-24-48 24-48 24-48z" fill="#EAEAEA" p-id="8512"></path><path d="M310.4 776h456.8c3.2-26.4 23.2-40 23.2-40h-480c-22.4 0-40 17.6-40 40v16c0 4 0.8 8 2.4 12 4.8-16 20-28 37.6-28z" fill="#D4D6D6" p-id="8513"></path><path d="M792 840H310.4c-26.4 0-46.4-20.8-46.4-48v-16c0-27.2 20.8-48 46.4-48H792c3.2 0 6.4 2.4 8 5.6 0.8 3.2 0 7.2-3.2 8.8-0.8 0.8-20.8 14.4-20.8 41.6s20 40.8 20.8 41.6c3.2 1.6 4 5.6 3.2 8.8-1.6 3.2-4.8 5.6-8 5.6zM310.4 744c-16.8 0-30.4 14.4-30.4 32v16c0 17.6 13.6 32 30.4 32h462.4c-6.4-8.8-12.8-22.4-12.8-40s6.4-31.2 12.8-40H310.4z" fill="#A03513" p-id="8514"></path><path d="M720 792H320c-4.8 0-8-3.2-8-8s4-8 8-8h400c4.8 0 8 3.2 8 8s-4 8-8 8z" fill="#A03513" p-id="8515"></path><path d="M478.4 864l-48-24-48 24V784h96z" fill="#F74541" p-id="8516"></path><path d="M384 872c-1.6 0-3.2 0-4-0.8-2.4-1.6-4-4-4-7.2V784c0-4.8 3.2-8 8-8h96c4.8 0 8 3.2 8 8v80c0 2.4-1.6 5.6-4 6.4-2.4 1.6-5.6 1.6-8 0.8l-46.4-22.4-42.4 22.4c-0.8 0.8-1.6 0.8-3.2 0.8z m46.4-40c0.8 0 2.4 0 3.2 0.8l38.4 18.4V792H392v59.2l34.4-17.6c1.6-1.6 2.4-1.6 4-1.6z" fill="#A03513" p-id="8517"></path><path d="M752 512c0-4-3.2-8-8-8s-8 3.2-8 8v80c0 4.8 3.2 8 8 8 4 0 8-3.2 8-8V512zM744 464c-4.8 0-8-3.2-8-8V260c0-17.6-1.6-28-28-28H480c-4.8 0-8-3.2-8-8s3.2-8 8-8h228c38.4 0 44 22.4 44 44V456c0 4.8-3.2 8-8 8zM431.2 232H384c-4.8 0-8.8-3.2-8.8-8s4-8 8.8-8h47.2c4.8 0 8.8 3.2 8.8 8s-4 8-8.8 8z" fill="#FFFFFF" p-id="8518"></path><path d="M504 392H416c-4.8 0-8-3.2-8-8s3.2-8 8-8h88c4.8 0 8 3.2 8 8s-3.2 8-8 8zM632 392H542.4c-4.8 0-8-3.2-8-8s4-8 8-8H632c4.8 0 8 3.2 8 8s-4 8-8 8zM552 440H416c-4.8 0-8-3.2-8-8s3.2-8 8-8h136c4.8 0 8 3.2 8 8s-3.2 8-8 8z" fill="#FFFFFF" p-id="8519"></path><path d="M552 120c-17.6 0-32-14.4-32-32s14.4-32 32-32 32 14.4 32 32-14.4 32-32 32z m0-48.8c-9.6 0-16.8 8-16.8 16.8 0 9.6 8 16.8 16.8 16.8 9.6 0 16.8-8 16.8-16.8 0-9.6-7.2-16.8-16.8-16.8zM884 664c-15.2 0-28-12.8-28-28s12.8-28 28-28 28 12.8 28 28-12.8 28-28 28z m0-43.2c-8 0-15.2 6.4-15.2 15.2 0 8 6.4 15.2 15.2 15.2 8 0 15.2-6.4 15.2-15.2 0-8-7.2-15.2-15.2-15.2zM176 455.2c0-3.2-3.2-6.4-8-7.2l-15.2-2.4c-4-0.8-8.8-4.8-8.8-8.8l-2.4-15.2c-0.8-4-4-8-7.2-8s-6.4 3.2-7.2 8l-2.4 15.2c-0.8 4-4.8 8.8-8.8 8.8l-13.6 2.4c-4 0.8-8 4-8 7.2s3.2 6.4 8 7.2l15.2 2.4c4 0.8 8.8 4.8 8.8 8.8l2.4 15.2c0.8 4 4 8 7.2 8s6.4-3.2 7.2-8l2.4-16.8c0.8-4 4.8-8 8.8-8.8l14.4-0.8c4-1.6 7.2-4 7.2-7.2zM944 441.6c0-3.2-3.2-6.4-8-7.2l-15.2-2.4c-4-0.8-8.8-4.8-8.8-8.8l-2.4-15.2c-0.8-4-4-8-7.2-8s-6.4 3.2-7.2 8l-2.4 15.2c-0.8 4-4.8 8.8-8.8 8.8l-15.2 2.4c-4 0.8-8 4-8 7.2s3.2 6.4 8 7.2l15.2 2.4c4 0.8 8.8 4.8 8.8 8.8l2.4 15.2c0.8 4 4 8 7.2 8s6.4-3.2 7.2-8l2.4-16.8c0.8-4 4.8-8 8.8-8.8l14.4-0.8c5.6-1.6 8.8-4.8 8.8-7.2z" fill="#FFFFFF" p-id="8520"></path></svg>