<?xml version="1.0" standalone="no"?><!DOCTYPE svg PUBLIC "-//W3C//DTD SVG 1.1//EN" "http://www.w3.org/Graphics/SVG/1.1/DTD/svg11.dtd"><svg t="1515378795397" class="icon" style="" viewBox="0 0 1024 1024" version="1.1" xmlns="http://www.w3.org/2000/svg" p-id="1104" xmlns:xlink="http://www.w3.org/1999/xlink" width="20" height="20"><defs><style type="text/css"></style></defs><path d="M133.688889 443.733333c0-170.666667 139.377778-310.044444 310.044444-310.044444s310.044444 139.377778 310.044445 310.044444-139.377778 310.044444-310.044445 310.044445S133.688889 614.4 133.688889 443.733333m822.044444 457.955556l-213.333333-213.333333c54.044444-65.422222 88.177778-150.755556 88.177778-244.622223C830.577778 230.4 657.066667 56.888889 443.733333 56.888889S56.888889 230.4 56.888889 443.733333s173.511111 386.844444 386.844444 386.844445c93.866667 0 179.2-34.133333 244.622223-88.177778l213.333333 213.333333c8.533333 8.533333 17.066667 11.377778 28.444444 11.377778 8.533333 0 19.911111-2.844444 28.444445-11.377778 11.377778-14.222222 11.377778-39.822222-2.844445-54.044444" fill="#B6B6B6" p-id="1105"></path></svg>